<svg width="146" height="18" viewBox="0 0 146 18" fill="none" xmlns="http://www.w3.org/2000/svg">
<path d="M143.74 4.02439C141.932 2.16221 138.934 0.922749 134.743 0.304312C131.464 -0.179272 128.272 -0.0865068 125.168 0.582608C122.063 1.25086 119.024 2.21116 116.052 3.46264C113.08 4.71411 110.129 6.14082 107.199 7.74274C104.269 9.34467 101.339 10.8366 98.4108 12.2195C94.882 13.8893 91.3779 15.1717 87.8993 16.0667C84.4207 16.9617 80.8596 17.1413 77.2158 16.6036C76.4607 16.4919 75.5915 16.2772 74.6107 15.9602C74.8602 15.8563 75.1028 15.7481 75.3378 15.6364C77.2533 14.7285 78.7865 13.751 79.9376 12.7057C81.0886 11.6604 81.8837 10.6202 82.323 9.58517C82.7623 8.55014 82.9334 7.69635 82.8355 7.02208C82.695 6.47923 82.5154 6.09958 82.2983 5.88055C82.0804 5.66238 81.607 5.60655 80.8791 5.71478C80.393 5.78607 80.0448 6.05663 79.8337 6.52561C79.6226 6.99459 79.4915 7.48334 79.4412 7.99097C79.391 8.49946 79.3663 8.97188 79.368 9.40994C79.3697 9.848 79.3748 10.0971 79.3833 10.1589C79.4812 10.8332 79.1467 11.5238 78.3813 12.2307C77.616 12.9376 76.6718 13.5938 75.5498 14.1968C74.7316 14.6375 73.8803 15.0308 72.9991 15.3804C72.118 15.0308 71.2675 14.6375 70.4485 14.1968C69.3265 13.5938 68.3823 12.9376 67.617 12.2307C66.8508 11.5229 66.517 10.8323 66.6149 10.1589C66.6235 10.0979 66.6286 9.848 66.6303 9.40994C66.632 8.97188 66.6073 8.49946 66.5571 7.99097C66.5068 7.48334 66.3757 6.99459 66.1646 6.52561C65.9535 6.05663 65.6053 5.78607 65.1191 5.71478C64.3904 5.60741 63.9171 5.66323 63.7 5.88055C63.482 6.09872 63.3032 6.47923 63.1628 7.02208C63.0649 7.69635 63.236 8.55014 63.6753 9.58517C64.1146 10.6202 64.9097 11.6604 66.0607 12.7057C67.2117 13.7519 68.745 14.7285 70.6605 15.6364C70.8955 15.7481 71.1381 15.8554 71.3876 15.9602C70.4068 16.2763 69.5368 16.4919 68.7825 16.6036C65.1387 17.1404 61.5776 16.9617 58.099 16.0667C54.6204 15.1717 51.1163 13.8893 47.5875 12.2195C44.6581 10.8366 41.7286 9.34467 38.7991 7.74274C35.8688 6.14082 32.9181 4.71411 29.9461 3.46264C26.974 2.21116 23.9356 1.25086 20.8308 0.582608C17.7259 -0.0865068 14.5343 -0.178413 11.2549 0.304312C7.06462 0.92189 4.06621 2.16221 2.25796 4.02439C0.449719 5.88657 -0.272218 8.07342 0.0913041 10.5858C0.277747 11.8725 0.712779 12.9505 1.39726 13.8197C2.08173 14.689 2.86497 15.3864 3.74695 15.9138C4.62979 16.4404 5.56541 16.8037 6.55552 17.0013C7.54563 17.1997 8.40463 17.2443 9.13338 17.137C9.49775 17.0829 9.37345 16.9763 8.76134 16.8166C8.14923 16.6568 7.37366 16.333 6.43463 15.8451C5.49561 15.3581 4.56339 14.6976 3.63628 13.8644C2.70917 13.0312 2.14388 11.9095 1.93956 10.5008C1.83314 9.76554 1.86549 8.91605 2.03576 7.95232C2.20603 6.98859 2.55508 6.07639 3.08121 5.21659C3.60819 4.35679 4.36247 3.57259 5.34577 2.86482C6.32821 2.15705 7.54903 1.69493 9.00567 1.4802C12.2237 1.00606 15.3728 1.1203 18.4513 1.82463C21.5306 2.5281 24.6082 3.54509 27.6849 4.87473C30.7617 6.20437 33.8469 7.70495 36.9424 9.37645C40.037 11.0479 43.2321 12.5477 46.525 13.8773C49.8972 15.3203 53.3485 16.4541 56.879 17.2787C60.4095 18.1033 64.1784 18.2209 68.1865 17.63C69.976 17.3663 71.58 17.0064 73 16.5512C74.42 17.0064 76.0248 17.3663 77.8135 17.63C81.8216 18.2209 85.5904 18.1041 89.1209 17.2787C92.6515 16.4541 96.1028 15.3203 99.4749 13.8773C102.769 12.5485 105.963 11.0479 109.058 9.37645C112.153 7.70495 115.238 6.20437 118.315 4.87473C121.392 3.54509 124.469 2.5281 127.549 1.82463C130.628 1.12116 133.776 1.00606 136.994 1.48106C138.452 1.69579 139.672 2.15705 140.654 2.86568C141.637 3.57345 142.392 4.35765 142.919 5.21745C143.446 6.07725 143.794 6.98945 143.964 7.95318C144.134 8.91691 144.167 9.7664 144.06 10.5016C143.856 11.9112 143.291 13.0321 142.364 13.8653C141.437 14.6984 140.504 15.359 139.565 15.846C138.626 16.333 137.851 16.6568 137.239 16.8174C136.627 16.9772 136.502 17.0846 136.867 17.1378C137.595 17.2452 138.454 17.1997 139.444 17.0021C140.435 16.8037 141.371 16.4412 142.253 15.9147C143.136 15.3873 143.919 14.6899 144.603 13.8206C145.286 12.9514 145.722 11.8734 145.909 10.5867C146.272 8.07428 145.55 5.88743 143.742 4.02525L143.74 4.02439Z" fill="#FF9900"/>
</svg>
