<svg width="20" height="20" viewBox="0 0 20 20" fill="none" xmlns="http://www.w3.org/2000/svg">
<path d="M7.56397 6.73L8.07897 8.593C8.56397 10.348 8.80597 11.226 9.51897 11.625C10.232 12.025 11.137 11.789 12.947 11.319L14.867 10.819C16.677 10.349 17.582 10.114 17.994 9.423C18.406 8.731 18.164 7.853 17.678 6.098L17.164 4.236C16.679 2.48 16.436 1.602 15.724 1.203C15.01 0.802998 14.105 1.039 12.295 1.51L10.375 2.008C8.56497 2.478 7.65997 2.714 7.24897 3.406C6.83697 4.097 7.07897 4.975 7.56397 6.73Z" fill="#FF9900"/>
<path d="M0.277188 3.24703C0.303535 3.15205 0.348343 3.0632 0.409052 2.98555C0.46976 2.90791 0.545178 2.84299 0.630993 2.79451C0.716807 2.74603 0.811336 2.71494 0.909175 2.70302C1.00701 2.69109 1.10624 2.69857 1.20119 2.72503L2.90419 3.19703C3.3554 3.31987 3.76714 3.55739 4.09938 3.88647C4.43161 4.21555 4.67304 4.62501 4.80019 5.07503L6.95119 12.861L7.10919 13.408C7.74694 13.6431 8.28437 14.0905 8.63119 14.675L8.94119 14.579L17.8112 12.274C17.9065 12.2492 18.0058 12.2434 18.1034 12.257C18.201 12.2705 18.2949 12.3032 18.3799 12.353C18.4649 12.4029 18.5392 12.469 18.5986 12.5476C18.658 12.6262 18.7014 12.7157 18.7262 12.811C18.751 12.9064 18.7568 13.0057 18.7433 13.1032C18.7297 13.2008 18.6971 13.2948 18.6472 13.3797C18.5973 13.4647 18.5312 13.539 18.4526 13.5984C18.374 13.6579 18.2845 13.7012 18.1892 13.726L9.35219 16.022L9.02219 16.124C9.01619 17.394 8.13919 18.556 6.81219 18.9C5.22219 19.314 3.58719 18.398 3.16119 16.856C2.73519 15.314 3.67919 13.727 5.26919 13.314C5.34852 13.294 5.42752 13.2767 5.50619 13.262L3.35419 5.47403C3.29599 5.27408 3.18718 5.09253 3.03827 4.94695C2.88936 4.80137 2.7054 4.69669 2.50419 4.64303L0.800188 4.17003C0.705231 4.14378 0.616376 4.09908 0.538698 4.03849C0.46102 3.97789 0.396041 3.90259 0.347473 3.81687C0.298906 3.73116 0.2677 3.63672 0.255641 3.53894C0.243581 3.44117 0.250903 3.34197 0.277188 3.24703Z" fill="#FF9900"/>
</svg>
